<?xml version="1.0" encoding="UTF-8"?>
<svg id="Layer_2" data-name="Layer 2" xmlns="http://www.w3.org/2000/svg" width="356.4" height="278" viewBox="0 0 356.4 278">
  <g id="Logos">
    <g>
      <g>
        <path d="M200.2,116.39c0,2.09-.5,3.62-1.5,4.61-1,.99-2.57,1.48-4.69,1.48s-3.74-.5-4.76-1.51c-1.02-1-1.52-2.55-1.52-4.63v-8.72h3.19v8.72c0,1.19.22,2.07.68,2.64.45.57,1.27.86,2.46.86s1.93-.29,2.34-.86.62-1.45.62-2.64v-8.72h3.19v8.76Z" fill="#282828"/>
        <path d="M208.18,107.63h3.25l5.99,9.76v-9.76h3.07v14.57h-3.19l-6.04-9.78v9.78h-3.09v-14.57Z" fill="#282828"/>
        <path d="M235.43,107.63c1.36,0,2.48.3,3.34.91.87.61,1.3,1.52,1.3,2.75,0,.68-.18,1.28-.53,1.81-.35.52-.84.92-1.45,1.2,1.77.5,2.66,1.69,2.66,3.56,0,1.38-.46,2.44-1.39,3.2-.93.76-2.11,1.14-3.54,1.14h-7.28v-14.57h6.9ZM231.65,113.52h2.9c1.61,0,2.41-.57,2.41-1.7,0-.67-.22-1.12-.65-1.36s-1.02-.36-1.76-.36h-2.9v3.42ZM231.65,119.66h3.21c.83,0,1.49-.14,1.97-.41.48-.27.73-.8.73-1.57s-.26-1.32-.77-1.59c-.51-.27-1.21-.4-2.1-.4h-3.05v3.97Z" fill="#282828"/>
        <path d="M259.27,120.93c-1.12,1.08-2.65,1.62-4.6,1.62-2.11,0-3.82-.7-5.1-2.1-1.29-1.4-1.93-3.25-1.93-5.55,0-2.18.65-4,1.95-5.44,1.3-1.44,3.04-2.17,5.21-2.17,1.73,0,3.19.49,4.36,1.47,1.17.98,1.82,2.23,1.94,3.74h-3.13c-.16-.8-.53-1.43-1.09-1.87-.57-.44-1.28-.67-2.14-.67s-1.63.25-2.24.75c-.61.5-1.03,1.11-1.28,1.83-.25.72-.37,1.51-.37,2.37,0,1.5.35,2.7,1.04,3.59s1.63,1.34,2.8,1.34c1.95,0,3.06-1.09,3.33-3.27h3.17c-.16,1.83-.8,3.28-1.92,4.36Z" fill="#282828"/>
        <path d="M270.87,112.91c-.48.68-1.32,1.12-2.51,1.31v-1.43c.93-.26,1.41-.91,1.45-1.96h-1.45v-3.19h3.23v2.5c0,1.17-.24,2.1-.73,2.78Z" fill="#282828"/>
        <path d="M287.21,111.97c-.12-1.45-1.04-2.17-2.76-2.17-.74,0-1.31.15-1.73.44-.42.29-.62.7-.62,1.22,0,.18.03.33.08.47.05.14.16.26.31.38.15.12.3.21.45.29.15.08.37.16.67.25.29.09.56.17.8.24.24.07.58.16,1.01.27.44.11.82.21,1.15.31,1.43.41,2.5.92,3.2,1.54.7.61,1.05,1.49,1.05,2.64,0,.83-.17,1.56-.51,2.18-.34.62-.8,1.11-1.38,1.47-.58.36-1.21.63-1.9.8-.69.17-1.42.26-2.2.26-1.98,0-3.52-.45-4.63-1.36-1.11-.91-1.67-2.19-1.69-3.84h3.17c.05,1.83,1.15,2.74,3.29,2.74.83,0,1.49-.17,1.97-.52.48-.35.73-.82.73-1.42,0-.51-.22-.87-.67-1.11s-1.37-.55-2.79-.96c-.08-.01-.14-.03-.18-.04-.04-.01-.1-.03-.16-.05-.07-.02-.13-.04-.18-.05-.49-.14-.83-.23-1.02-.3-.19-.06-.49-.17-.91-.32-.42-.15-.72-.29-.91-.41-.19-.12-.43-.29-.71-.51s-.48-.45-.6-.68-.24-.53-.34-.88-.15-.73-.15-1.14c0-1.32.51-2.38,1.54-3.17,1.02-.79,2.38-1.19,4.07-1.19s2.97.38,4.01,1.15c1.04.77,1.57,1.93,1.6,3.49h-3.03Z" fill="#282828"/>
        <path d="M195.56,136.19c-.12-1.45-1.04-2.17-2.76-2.17-.74,0-1.31.15-1.73.44-.42.29-.62.7-.62,1.22,0,.18.03.33.08.47.05.14.16.26.31.38.15.12.3.21.45.29.15.08.37.16.67.25.29.09.56.17.8.24s.58.16,1.01.27c.44.11.82.21,1.15.31,1.43.41,2.5.92,3.2,1.54.7.61,1.05,1.49,1.05,2.64,0,.83-.17,1.56-.51,2.18-.34.62-.8,1.11-1.38,1.47-.58.36-1.21.63-1.9.8-.69.17-1.42.26-2.2.26-1.98,0-3.52-.45-4.63-1.36-1.11-.91-1.67-2.19-1.69-3.84h3.17c.05,1.83,1.15,2.74,3.29,2.74.83,0,1.49-.17,1.97-.52.48-.35.73-.82.73-1.42,0-.51-.22-.87-.67-1.11-.44-.23-1.37-.55-2.79-.96-.08-.01-.14-.03-.18-.04-.04-.01-.1-.03-.16-.05-.07-.02-.13-.04-.18-.05-.49-.14-.83-.23-1.02-.3-.19-.06-.49-.17-.91-.32-.42-.15-.72-.29-.91-.41-.19-.12-.43-.29-.71-.51-.28-.22-.48-.45-.6-.68s-.24-.53-.34-.88-.15-.73-.15-1.14c0-1.32.51-2.38,1.54-3.17,1.02-.79,2.38-1.19,4.07-1.19s2.97.38,4.01,1.15c1.04.77,1.57,1.93,1.6,3.49h-3.03Z" fill="#282828"/>
        <path d="M217.12,134.57h-4.38v11.85h-3.21v-11.85h-4.38v-2.72h11.97v2.72Z" fill="#282828"/>
        <path d="M236.41,140.6c0,2.09-.5,3.62-1.5,4.61-1,.99-2.57,1.48-4.69,1.48s-3.74-.5-4.76-1.51c-1.02-1-1.52-2.55-1.52-4.63v-8.72h3.19v8.72c0,1.19.22,2.07.68,2.64.45.57,1.27.86,2.46.86s1.93-.29,2.34-.86c.42-.57.62-1.45.62-2.64v-8.72h3.19v8.76Z" fill="#282828"/>
        <path d="M244.41,131.85h5.89c2.26,0,4.01.63,5.23,1.88,1.22,1.25,1.83,3.06,1.83,5.4s-.61,4.15-1.83,5.4c-1.22,1.26-2.96,1.88-5.23,1.88h-5.89v-14.57ZM249.92,143.75c2.82,0,4.23-1.54,4.23-4.62,0-1.49-.35-2.63-1.05-3.43s-1.76-1.2-3.18-1.2h-2.33v9.25h2.33Z" fill="#282828"/>
        <path d="M275.69,134.47h-7.75v3.17h7.12v2.52h-7.12v3.58h7.9v2.68h-11.07v-14.57h10.93v2.62Z" fill="#282828"/>
        <path d="M283.24,131.85h3.25l5.99,9.76v-9.76h3.07v14.57h-3.19l-6.04-9.78v9.78h-3.09v-14.57Z" fill="#282828"/>
        <path d="M314.44,134.57h-4.38v11.85h-3.21v-11.85h-4.38v-2.72h11.97v2.72Z" fill="#282828"/>
        <path d="M187.8,156.06h3.25l5.99,9.76v-9.76h3.07v14.57h-3.19l-6.04-9.78v9.78h-3.09v-14.57Z" fill="#282828"/>
        <path d="M219.11,158.68h-7.75v3.17h7.12v2.52h-7.12v3.58h7.9v2.68h-11.07v-14.57h10.93v2.62Z" fill="#282828"/>
        <path d="M228.52,156.06l2.33,9.9,2.56-9.9h3.01l2.52,10.03,2.41-10.03h3.15l-3.93,14.57h-3.19l-2.5-9.94-2.46,9.94h-3.25l-3.87-14.57h3.21Z" fill="#282828"/>
        <path d="M258.94,160.4c-.12-1.44-1.04-2.17-2.76-2.17-.74,0-1.31.15-1.73.44-.42.29-.62.7-.62,1.22,0,.18.03.33.08.47.05.14.16.26.31.38.15.12.3.21.45.29.15.08.37.16.67.25.29.09.56.17.8.23.24.07.58.16,1.01.27s.82.21,1.15.31c1.43.41,2.5.92,3.2,1.53.7.61,1.05,1.49,1.05,2.64,0,.83-.17,1.56-.51,2.18-.34.62-.8,1.11-1.38,1.47-.58.36-1.21.63-1.9.8-.69.17-1.42.26-2.2.26-1.98,0-3.52-.45-4.63-1.36-1.11-.91-1.67-2.19-1.69-3.84h3.17c.05,1.83,1.15,2.74,3.29,2.74.83,0,1.49-.17,1.97-.52.48-.35.73-.82.73-1.42,0-.51-.22-.87-.67-1.11-.44-.23-1.37-.55-2.79-.96-.08-.02-.14-.03-.18-.04-.04-.02-.1-.03-.16-.05-.07-.02-.13-.04-.18-.05-.49-.14-.83-.23-1.02-.3s-.49-.17-.91-.32c-.42-.15-.72-.29-.91-.41-.19-.12-.43-.29-.71-.51-.28-.22-.48-.45-.6-.68-.12-.24-.24-.53-.34-.88-.1-.35-.15-.72-.15-1.14,0-1.32.51-2.38,1.53-3.17,1.02-.79,2.38-1.19,4.07-1.19s2.97.38,4.01,1.16c1.04.77,1.57,1.93,1.6,3.49h-3.03Z" fill="#282828"/>
        <path d="M275.98,156.06c1.64,0,2.94.39,3.9,1.18.96.78,1.44,1.95,1.44,3.51s-.48,2.68-1.43,3.47-2.2,1.18-3.74,1.18h-3.27v5.24h-3.17v-14.57h6.28ZM272.87,162.88h2.84c1.66,0,2.5-.7,2.5-2.09s-.82-2.11-2.48-2.11h-2.86v4.19Z" fill="#282828"/>
        <path d="M299.81,170.63h-3.36l-1.15-3.25h-5.42l-1.19,3.25h-3.27l5.54-14.59h3.29l5.54,14.59ZM292.61,159.62l-1.94,5.42h3.87l-1.92-5.42Z" fill="#282828"/>
        <path d="M312.56,156.06c1.64,0,2.94.39,3.9,1.18.96.78,1.44,1.95,1.44,3.51s-.48,2.68-1.43,3.47-2.2,1.18-3.74,1.18h-3.27v5.24h-3.17v-14.57h6.28ZM309.45,162.88h2.84c1.66,0,2.5-.7,2.5-2.09s-.82-2.11-2.48-2.11h-2.86v4.19Z" fill="#282828"/>
        <path d="M336.04,158.68h-7.75v3.17h7.12v2.52h-7.12v3.58h7.9v2.68h-11.07v-14.57h10.93v2.62Z" fill="#282828"/>
        <path d="M350.96,156.06c1.45,0,2.63.34,3.54,1.02s1.37,1.72,1.37,3.11c0,.85-.2,1.59-.61,2.22s-.98,1.09-1.7,1.36c1.26.26,1.97,1.39,2.15,3.39,0,.07.01.28.04.63.03.35.05.64.08.85.03.21.06.47.1.77.04.3.1.55.18.76s.18.35.29.45h-3.31c-.11-.22-.19-.49-.25-.83-.05-.34-.1-.76-.14-1.29-.04-.52-.06-.81-.06-.87-.11-1.02-.36-1.73-.77-2.13-.4-.4-1.11-.59-2.14-.59h-2.84v5.71h-3.17v-14.57h7.24ZM346.89,162.61h3.03c.89,0,1.58-.14,2.08-.42.5-.28.75-.83.75-1.65,0-.76-.24-1.28-.73-1.55-.48-.27-1.14-.41-1.95-.41h-3.17v4.03Z" fill="#282828"/>
      </g>
      <g>
        <g>
          <path d="M14.49,116.57H0v-19.87h52.85v19.87h-14.7v64.76H14.49v-64.76Z" fill="#2c6753"/>
          <path d="M56.82,96.71h23.29v32.25h14.86v-32.25h23.29v84.62h-23.29v-32.51h-14.86v32.51h-23.29v-84.62Z" fill="#2c6753"/>
          <path d="M128.72,96.71h44.63v19.87h-20.87v12.38h18.81v19.87h-18.81v12.54h20.87v19.97h-44.63v-84.62Z" fill="#2c6753"/>
        </g>
        <g>
          <path d="M5.27,192.16h44.63v19.87h-20.87v12.38h18.81v19.87h-18.81v12.54h20.87v19.97H5.27v-84.62Z" fill="#2c6753"/>
          <path d="M58.72,192.16h25.03c25.98,0,38.15,16.44,38.15,42.05,0,27.14-12.65,42.58-38.31,42.58h-24.87v-84.62ZM82.38,258.03c10.8,0,16.18-8.48,16.18-23.82s-4.74-23.13-15.07-23.13h-2.21v46.95h1.11Z" fill="#2c6753"/>
          <path d="M190,226.89v49.9h-18.07l-.05-8.33h-.32c-.24,1.61-2.86,9.54-16.86,9.54-19.13,0-28.09-18.97-28.09-44s8.59-43.15,32.88-43.15c20.34,0,30.02,12.91,30.02,28.39h-19.64c-.04-1.2-.09-1.29-.26-2.29-.88-5.29-3.57-7.97-9.02-7.97-10.43,0-10.7,12.49-10.7,25.5s.9,23.82,9.85,23.82c6.11,0,8.17-4.95,8.17-10.06v-5.06h-9.64v-16.28h31.72Z" fill="#2c6753"/>
          <path d="M198.77,192.16h44.63v19.87h-20.87v12.38h18.81v19.87h-18.81v12.54h20.87v19.97h-44.63v-84.62Z" fill="#2c6753"/>
        </g>
        <g>
          <path d="M61.72,1.25h24.66l7.69,49.48h1.84L102.3,1.25h24.4l-16.91,84.62h-31.14L61.72,1.25Z" fill="#2c6753"/>
          <path d="M129.56,1.25h44.63v19.87h-20.87v12.38h18.81v19.87h-18.81v12.54h20.87v19.97h-44.63V1.25Z" fill="#2c6753"/>
          <path d="M222.01,85.98l-9.91-28.08h-5.43v27.98h-23.66V1.25h29.19c17.18,0,27.45,11.43,27.45,28.35,0,9.22-3.42,16.49-9.01,21.39l15.28,34.99h-23.92ZM209.89,41.14c4.16,0,6.59-5.16,6.59-11.7s-2.69-10.01-6.74-10.01h-3.06v21.71h3.21Z" fill="#2c6753"/>
          <g>
            <path d="M17.17,12.75S2.58,8.74,1.73,40.47C2.31,11.9,11.13.51,29.99.02c-16.54.59-12.82,12.73-12.82,12.73Z" fill="#7addb3"/>
            <path d="M22.33,17.13S2.33,18.79,1.7,42.41v-.32c.01-.55.02-1.09.03-1.62.85-31.73,15.44-27.72,15.44-27.72C17.17,12.75,13.45.61,29.99.02c.27,0,.56,0,.84,0-11.48.41-8.5,17.12-8.5,17.12Z" fill="#44a57f"/>
            <path d="M31.29,0c-.15,0-.3,0-.46.01-11.48.41-8.5,17.12-8.5,17.12,0,0-20,1.66-20.63,25.28,0,.37-.01.75-.01,1.14,0,31.53,9.16,43.54,29.6,43.54s30.98-12.01,30.98-43.54S52.64,0,31.29,0ZM32.03,66.85c-4.68,0-6.81-4.17-6.81-23.3s2.13-23.94,6.81-23.94,6.72,4.43,6.72,23.94-2.14,23.3-6.72,23.3Z" fill="#2c6753"/>
          </g>
        </g>
      </g>
    </g>
  </g>
</svg>