<?xml version="1.0" encoding="UTF-8"?>
<svg id="Layer_2" data-name="Layer 2" xmlns="http://www.w3.org/2000/svg" width="485" height="80.16" viewBox="0 0 485 80.16">
  <g id="Logos">
    <path d="M10.63,8.93S1.03,6.29.07,26.62C.71,7.99,6.77.53,19.43.2c-11.36.4-8.8,8.73-8.8,8.73Z" fill="#7addb3"/>
    <g>
      <g>
        <path d="M192.87,75.9c0,1.45-.35,2.51-1.04,3.2-.69.69-1.78,1.03-3.25,1.03s-2.59-.35-3.3-1.04c-.7-.69-1.06-1.76-1.06-3.21v-6.04h2.21v6.04c0,.82.16,1.43.47,1.83s.88.6,1.7.6,1.33-.2,1.62-.6.43-1.01.43-1.83v-6.04h2.21v6.07Z" fill="#282828"/>
        <path d="M198.4,69.83h2.25l4.15,6.76v-6.76h2.13v10.09h-2.21l-4.18-6.77v6.77h-2.14v-10.09Z" fill="#282828"/>
        <path d="M217.28,69.83c.94,0,1.72.21,2.32.63.6.42.9,1.06.9,1.91,0,.47-.12.89-.37,1.25-.25.36-.58.64-1.01.83,1.23.35,1.84,1.17,1.84,2.47,0,.95-.32,1.69-.96,2.22-.64.52-1.46.79-2.45.79h-5.05v-10.09h4.78ZM214.65,73.91h2.01c1.11,0,1.67-.39,1.67-1.18,0-.46-.15-.78-.45-.94s-.71-.25-1.22-.25h-2.01v2.37ZM214.65,78.16h2.23c.58,0,1.03-.09,1.37-.28.34-.19.5-.55.5-1.09s-.18-.91-.53-1.1-.84-.28-1.45-.28h-2.11v2.75Z" fill="#282828"/>
        <path d="M233.79,79.04c-.77.75-1.84,1.12-3.19,1.12-1.46,0-2.64-.48-3.54-1.45-.89-.97-1.34-2.25-1.34-3.85,0-1.51.45-2.77,1.35-3.77.9-1,2.1-1.5,3.61-1.5,1.2,0,2.21.34,3.02,1.02.81.68,1.26,1.55,1.35,2.59h-2.17c-.11-.56-.37-.99-.76-1.3-.39-.31-.89-.46-1.48-.46s-1.13.17-1.55.52c-.42.34-.72.77-.89,1.27-.17.5-.26,1.05-.26,1.64,0,1.04.24,1.87.72,2.49s1.13.93,1.94.93c1.35,0,2.12-.76,2.31-2.27h2.2c-.11,1.27-.56,2.27-1.33,3.02Z" fill="#282828"/>
        <path d="M241.83,73.49c-.34.47-.91.77-1.74.91v-.99c.64-.18.98-.63,1.01-1.36h-1.01v-2.21h2.24v1.73c0,.81-.17,1.46-.5,1.93Z" fill="#282828"/>
        <path d="M253.15,72.83c-.08-1-.72-1.5-1.91-1.5-.51,0-.91.1-1.2.3s-.43.48-.43.84c0,.12.02.23.06.33.04.09.11.18.21.26.1.08.21.15.31.2.1.05.26.11.46.17.2.06.39.12.55.16.17.05.4.11.7.18.3.08.57.15.79.21.99.28,1.73.64,2.22,1.06.49.43.73,1.03.73,1.83,0,.58-.12,1.08-.35,1.51-.24.43-.56.77-.96,1.02-.4.25-.84.43-1.32.55-.48.12-.99.18-1.52.18-1.37,0-2.44-.31-3.21-.94-.77-.63-1.16-1.51-1.17-2.66h2.2c.04,1.27.8,1.9,2.28,1.9.58,0,1.03-.12,1.37-.36.34-.24.5-.57.5-.98,0-.35-.15-.6-.46-.77s-.95-.38-1.93-.67c-.06,0-.1-.02-.13-.03-.03,0-.07-.02-.11-.04-.05-.01-.09-.03-.13-.04-.34-.09-.58-.16-.71-.21s-.34-.12-.63-.22c-.29-.1-.5-.2-.63-.28-.13-.09-.29-.2-.49-.35s-.33-.31-.42-.48-.16-.37-.23-.61c-.07-.24-.11-.5-.11-.79,0-.92.35-1.65,1.06-2.2.71-.55,1.65-.82,2.82-.82s2.06.27,2.78.8c.72.53,1.09,1.34,1.11,2.42h-2.1Z" fill="#282828"/>
        <path d="M273.51,72.83c-.08-1-.72-1.5-1.91-1.5-.51,0-.91.1-1.2.3s-.43.48-.43.84c0,.12.02.23.06.33.04.09.11.18.21.26.1.08.21.15.31.2.1.05.26.11.46.17.2.06.39.12.55.16.17.05.4.11.7.18.3.08.57.15.79.21.99.28,1.73.64,2.22,1.06.49.43.73,1.03.73,1.83,0,.58-.12,1.08-.35,1.51-.24.43-.56.77-.96,1.02s-.84.43-1.32.55c-.48.12-.99.18-1.52.18-1.37,0-2.44-.31-3.21-.94-.77-.63-1.16-1.51-1.17-2.66h2.2c.04,1.27.8,1.9,2.28,1.9.58,0,1.03-.12,1.37-.36.34-.24.5-.57.5-.98,0-.35-.15-.6-.46-.77s-.95-.38-1.93-.67c-.06,0-.1-.02-.13-.03-.03,0-.07-.02-.11-.04-.05-.01-.09-.03-.13-.04-.34-.09-.58-.16-.71-.21s-.34-.12-.63-.22c-.29-.1-.5-.2-.63-.28-.13-.09-.29-.2-.49-.35s-.33-.31-.42-.48-.16-.37-.23-.61c-.07-.24-.11-.5-.11-.79,0-.92.35-1.65,1.06-2.2.71-.55,1.65-.82,2.82-.82s2.06.27,2.78.8c.72.53,1.09,1.34,1.11,2.42h-2.1Z" fill="#282828"/>
        <path d="M288.45,71.72h-3.03v8.21h-2.23v-8.21h-3.03v-1.89h8.29v1.89Z" fill="#282828"/>
        <path d="M301.82,75.9c0,1.45-.35,2.51-1.04,3.2-.69.69-1.78,1.03-3.25,1.03s-2.59-.35-3.3-1.04c-.7-.69-1.06-1.76-1.06-3.21v-6.04h2.21v6.04c0,.82.16,1.43.47,1.83s.88.6,1.7.6,1.33-.2,1.62-.6.43-1.01.43-1.83v-6.04h2.21v6.07Z" fill="#282828"/>
        <path d="M307.36,69.83h4.08c1.57,0,2.78.43,3.62,1.3.85.87,1.27,2.12,1.27,3.74s-.42,2.87-1.27,3.74c-.85.87-2.05,1.3-3.62,1.3h-4.08v-10.09ZM311.17,78.08c1.96,0,2.93-1.07,2.93-3.2,0-1.03-.24-1.82-.73-2.37s-1.22-.83-2.2-.83h-1.62v6.41h1.62Z" fill="#282828"/>
        <path d="M329.03,71.64h-5.37v2.2h4.93v1.74h-4.93v2.48h5.47v1.86h-7.67v-10.09h7.57v1.81Z" fill="#282828"/>
        <path d="M334.26,69.83h2.25l4.15,6.76v-6.76h2.13v10.09h-2.21l-4.18-6.77v6.77h-2.14v-10.09Z" fill="#282828"/>
        <path d="M355.87,71.72h-3.03v8.21h-2.23v-8.21h-3.03v-1.89h8.29v1.89Z" fill="#282828"/>
        <path d="M368.2,69.83h2.25l4.15,6.76v-6.76h2.13v10.09h-2.21l-4.18-6.77v6.77h-2.14v-10.09Z" fill="#282828"/>
        <path d="M389.89,71.64h-5.37v2.2h4.93v1.74h-4.93v2.48h5.47v1.86h-7.67v-10.09h7.57v1.81Z" fill="#282828"/>
        <path d="M396.41,69.83l1.62,6.86,1.77-6.86h2.08l1.74,6.95,1.67-6.95h2.18l-2.72,10.09h-2.21l-1.73-6.89-1.7,6.89h-2.25l-2.68-10.09h2.23Z" fill="#282828"/>
        <path d="M417.48,72.83c-.08-1-.72-1.5-1.91-1.5-.51,0-.91.1-1.2.3s-.43.48-.43.84c0,.12.02.23.06.33.04.09.11.18.21.26.1.08.21.15.31.2.1.05.26.11.46.17.2.06.39.12.55.16.17.05.4.11.7.18.3.08.57.15.79.21.99.28,1.73.64,2.22,1.06.49.43.73,1.03.73,1.83,0,.58-.12,1.08-.35,1.51-.24.43-.56.77-.96,1.02-.4.25-.84.43-1.32.55-.48.12-.99.18-1.52.18-1.37,0-2.44-.31-3.21-.94-.77-.63-1.16-1.51-1.17-2.66h2.2c.04,1.27.8,1.9,2.28,1.9.58,0,1.03-.12,1.37-.36.34-.24.5-.57.5-.98,0-.35-.15-.6-.46-.77s-.95-.38-1.93-.67c-.06,0-.1-.02-.13-.03-.03,0-.07-.02-.11-.04-.05-.01-.09-.03-.13-.04-.34-.09-.58-.16-.71-.21s-.34-.12-.63-.22c-.29-.1-.5-.2-.63-.28-.13-.09-.29-.2-.49-.35s-.33-.31-.42-.48-.16-.37-.23-.61c-.07-.24-.11-.5-.11-.79,0-.92.35-1.65,1.06-2.2.71-.55,1.65-.82,2.82-.82s2.06.27,2.78.8c.72.53,1.09,1.34,1.11,2.42h-2.1Z" fill="#282828"/>
        <path d="M429.29,69.83c1.13,0,2.03.27,2.7.82.67.54,1,1.35,1,2.43s-.33,1.86-.99,2.4c-.66.54-1.53.82-2.59.82h-2.27v3.63h-2.2v-10.09h4.35ZM427.13,74.55h1.97c1.15,0,1.73-.48,1.73-1.45s-.57-1.46-1.72-1.46h-1.98v2.91Z" fill="#282828"/>
        <path d="M445.8,79.92h-2.32l-.79-2.25h-3.76l-.82,2.25h-2.27l3.84-10.11h2.28l3.84,10.11ZM440.81,72.3l-1.35,3.76h2.68l-1.33-3.76Z" fill="#282828"/>
        <path d="M454.63,69.83c1.13,0,2.03.27,2.7.82.67.54,1,1.35,1,2.43s-.33,1.86-.99,2.4c-.66.54-1.53.82-2.59.82h-2.27v3.63h-2.2v-10.09h4.35ZM452.47,74.55h1.97c1.15,0,1.73-.48,1.73-1.45s-.57-1.46-1.72-1.46h-1.98v2.91Z" fill="#282828"/>
        <path d="M470.9,71.64h-5.37v2.2h4.93v1.74h-4.93v2.48h5.47v1.86h-7.67v-10.09h7.57v1.81Z" fill="#282828"/>
        <path d="M481.23,69.83c1,0,1.82.24,2.45.71s.95,1.19.95,2.15c0,.59-.14,1.1-.43,1.54s-.68.75-1.18.94c.87.18,1.37.96,1.49,2.35,0,.05,0,.19.03.44.02.25.04.44.06.59.02.15.04.32.07.53s.07.38.13.52.12.25.2.31h-2.3c-.08-.15-.13-.34-.17-.57-.04-.23-.07-.53-.1-.89-.03-.36-.04-.56-.04-.6-.08-.71-.25-1.2-.53-1.47-.28-.27-.77-.41-1.48-.41h-1.97v3.95h-2.2v-10.09h5.02ZM478.41,74.37h2.1c.61,0,1.09-.1,1.44-.29.35-.19.52-.57.52-1.14,0-.53-.17-.89-.5-1.08-.34-.19-.79-.28-1.35-.28h-2.2v2.79Z" fill="#282828"/>
      </g>
      <g>
        <g>
          <path d="M192.09,14.53h-10.04V.77h36.61v13.76h-10.18v44.86h-16.39V14.53Z" fill="#2c6753"/>
          <path d="M221.42.77h16.13v22.34h10.29V.77h16.13v58.62h-16.13v-22.52h-10.29v22.52h-16.13V.77Z" fill="#2c6753"/>
          <path d="M271.22.77h30.92v13.76h-14.46v8.58h13.03v13.76h-13.03v8.69h14.46v13.83h-30.92V.77Z" fill="#2c6753"/>
        </g>
        <g>
          <path d="M320.03.77h30.92v13.76h-14.46v8.58h13.03v13.76h-13.03v8.69h14.46v13.83h-30.92V.77Z" fill="#2c6753"/>
          <path d="M357.06.77h17.34c18,0,26.43,11.39,26.43,29.13,0,18.8-8.76,29.49-26.54,29.49h-17.23V.77ZM373.45,46.4c7.48,0,11.21-5.88,11.21-16.5s-3.29-16.03-10.44-16.03h-1.53v32.52h.77Z" fill="#2c6753"/>
          <path d="M454.08.77h30.92v13.76h-14.46v8.58h13.03v13.76h-13.03v8.69h14.46v13.83h-30.92V.77Z" fill="#2c6753"/>
          <path d="M447.91,24.85v34.41h-12.46l-.04-5.74h-.22c-.17,1.11-1.97,6.58-11.63,6.58-13.19,0-19.37-13.08-19.37-30.34s5.92-29.76,22.67-29.76c14.02,0,20.7,8.9,20.7,19.58h-13.54c-.03-.83-.06-.89-.18-1.58-.61-3.65-2.46-5.5-6.22-5.5-7.19,0-7.38,8.61-7.38,17.59s.62,16.42,6.79,16.42c4.21,0,5.63-3.42,5.63-6.94v-3.49h-6.65v-11.23h21.87Z" fill="#2c6753"/>
        </g>
        <g>
          <path d="M41.31.77h17.08l5.33,34.57h1.28L69.42.77h16.9l-11.72,58.62h-21.57L41.31.77Z" fill="#2c6753"/>
          <path d="M88.3.77h30.92v13.76h-14.46v8.58h13.03v13.76h-13.03v8.69h14.46v13.83h-30.92V.77Z" fill="#2c6753"/>
          <path d="M152.35,59.47l-6.86-19.46h-3.76v19.38h-16.39V.77h20.22c11.9,0,19.02,7.92,19.02,19.64,0,6.39-2.37,11.42-6.24,14.82l10.59,24.24h-16.57ZM143.95,28.41c2.88,0,4.56-3.58,4.56-8.1s-1.86-6.94-4.67-6.94h-2.12v15.04h2.23Z" fill="#2c6753"/>
          <g>
            <path d="M14.17,11.95S0,13.12,0,30.09v-1.01c.01-.38.02-.75.02-1.11.01-.19.01-.38.02-.58.01-.27.02-.52.03-.77s.03-.5.04-.75C1.27,6.36,10.63,8.93,10.63,8.93c0,0-2.56-8.33,8.8-8.73.19-.01.38-.01.58-.01-7.89.28-5.84,11.76-5.84,11.76Z" fill="#44a57f"/>
            <path d="M20.33.18c-.11,0-.22,0-.32.01-7.89.28-5.84,11.76-5.84,11.76,0,0-14.17,1.17-14.17,18.14,0,21.65,6.29,29.9,20.33,29.9s21.27-8.25,21.27-29.9S34.99.18,20.33.18ZM20.83,46.08c-3.22,0-4.67-2.86-4.67-15.99s1.45-16.44,4.67-16.44,4.62,3.04,4.62,16.44-1.47,15.99-4.62,15.99Z" fill="#2c6753"/>
          </g>
        </g>
      </g>
    </g>
  </g>
</svg>