<?xml version="1.0" encoding="UTF-8"?>
<svg id="Layer_2" data-name="Layer 2" xmlns="http://www.w3.org/2000/svg" width="208.67" height="300" viewBox="0 0 208.67 300">
  <g id="Logos">
    <g>
      <path d="M53.32,43.93S2.64,29.99.1,140.7c0-.44.02-.88.03-1.31C2.12,40.97,32.49,1.76,97.46.08c-56.96,2.01-44.14,43.84-44.14,43.84Z" fill="#7addb3"/>
      <path d="M71.1,59.02S0,64.91,0,150.01c0-1.71,0-3.38.03-5.03,0-.73.02-1.44.03-2.15,0-.71.03-1.42.04-2.13C2.64,29.99,53.32,43.93,53.32,43.93c0,0-12.83-41.83,44.14-43.84.95-.04,1.94-.07,2.93-.07-39.57,1.43-29.29,59-29.29,59Z" fill="#44a57f"/>
      <path d="M101.95,0c-.52,0-1.05,0-1.57.02-39.57,1.43-29.29,59-29.29,59,0,0-71.1,5.89-71.1,90.99,0,108.6,31.53,149.99,101.95,149.99s106.72-41.4,106.72-149.99S175.49,0,101.95,0ZM104.51,230.26c-16.13,0-23.47-14.34-23.47-80.25s7.34-82.45,23.47-82.45,23.13,15.25,23.13,82.45-7.35,80.25-23.13,80.25Z" fill="#2c6753"/>
    </g>
  </g>
</svg>